<svg width="86" height="86" viewBox="0 0 86 86" fill="none" xmlns="http://www.w3.org/2000/svg">
<path d="M85.0088 25.5753V78.719C84.9661 78.8197 84.9082 78.9167 84.8829 79.0218C83.9251 83.0011 81.1889 85.1748 77.1155 85.175C54.1059 85.1766 31.0964 85.1774 8.08674 85.1745C3.42208 85.1737 0.245504 81.9933 0.244745 77.3247C0.24161 60.3848 0.243329 43.445 0.243329 26.5051C0.243329 26.2128 0.243329 25.9206 0.243329 25.5753H85.0088ZM52.5559 35.7279C52.5422 34.3278 51.6927 33.3007 50.5529 33.0686C49.3589 32.8255 48.2508 33.4726 47.6894 34.7817C42.7944 46.1945 37.9028 57.6087 33.0164 69.0252C32.3606 70.5572 32.869 72.0032 34.2252 72.5661C35.5536 73.1174 36.9223 72.4927 37.5629 71.0003C42.4592 59.5888 47.3491 48.1744 52.2335 36.7576C52.4043 36.3588 52.495 35.9259 52.5559 35.7279ZM19.309 52.8965C19.6275 52.6328 19.8726 52.4236 20.124 52.2223C23.1371 49.8118 26.1586 47.412 29.1607 44.988C30.3625 44.0175 30.5442 42.511 29.6521 41.3994C28.7791 40.3118 27.2841 40.1472 26.1075 41.082C21.9855 44.3563 17.8724 47.6421 13.7768 50.9495C12.4795 51.9975 12.4707 53.7757 13.7666 54.8234C17.8818 58.1501 22.0054 61.468 26.1824 64.716C26.6982 65.1174 27.5746 65.2608 28.2536 65.1977C29.2626 65.1043 29.9097 64.3678 30.1356 63.3595C30.3703 62.3117 29.9908 61.4591 29.1732 60.8024C26.6807 58.8001 24.1798 56.8085 21.6836 54.8112C20.9151 54.1964 20.1515 53.5759 19.309 52.8965ZM65.9514 52.8827C65.6145 53.162 65.3857 53.3576 65.1513 53.5454C62.1599 55.94 59.1647 58.3293 56.1775 60.7288C54.911 61.7463 54.6806 63.2126 55.5826 64.3636C56.4785 65.5073 57.9913 65.6275 59.2575 64.619C63.289 61.4072 67.3176 58.1916 71.3337 54.9603C72.8212 53.7635 72.8126 52.011 71.3176 50.8094C67.3002 47.5797 63.2723 44.3633 59.2403 41.1524C58.0063 40.1696 56.5289 40.2753 55.6222 41.3717C54.6891 42.5 54.8922 44.0076 56.1293 45.0151C57.1981 45.8855 58.28 46.7394 59.3559 47.6008C61.5248 49.3376 63.6938 51.0747 65.9514 52.8827Z" fill="#25A9E0"/>
<path d="M85.0092 7.19839V20.6086H0.26823C0.26823 16.169 0.26201 11.8415 0.278243 7.51398C0.279761 7.10763 0.395823 6.69527 0.501721 6.29727C1.36579 3.05087 4.22898 0.756194 7.59277 0.753586C30.9607 0.736371 54.3284 0.744979 77.6964 0.745239C77.7238 0.745239 77.7515 0.745761 77.7791 0.747326C80.6888 0.923899 82.8605 2.27963 84.1955 4.8732C84.5677 5.59619 84.7434 6.42063 85.0092 7.19839ZM65.0605 10.6751C62.6365 10.6751 60.2122 10.6707 57.7882 10.6769C56.1812 10.6808 55.0589 11.6949 55.0461 13.1354C55.0336 14.5803 56.1556 15.6369 57.7435 15.6392C62.5643 15.6463 67.3852 15.646 72.2059 15.6392C73.7999 15.6369 74.9177 14.5876 74.9067 13.1388C74.8957 11.6938 73.7775 10.6811 72.1678 10.6769C69.7988 10.6704 67.4298 10.6751 65.0605 10.6751ZM12.7846 10.6774C11.4437 10.7001 10.3341 11.8378 10.3457 13.1782C10.3575 14.519 11.4857 15.6387 12.8256 15.6387C14.1983 15.6387 15.3407 14.4679 15.306 13.0963C15.2723 11.7549 14.1255 10.6547 12.7846 10.6774ZM25.2396 13.1255C25.2221 11.7843 24.0889 10.6712 22.7474 10.6774C21.4065 10.6837 20.2835 11.8081 20.279 13.1487C20.2746 14.5219 21.4417 15.6692 22.8121 15.6387C24.1535 15.609 25.2571 14.4666 25.2396 13.1255ZM35.1729 13.1594C35.1744 11.8175 34.0573 10.69 32.7146 10.6774C31.3753 10.6652 30.2353 11.7757 30.2126 13.115C30.1893 14.4877 31.3402 15.6499 32.7117 15.6387C34.0538 15.6278 35.1715 14.5018 35.1729 13.1594Z" fill="#25A9E0"/>
</svg>
