<svg width="86" height="62" viewBox="0 0 86 62" fill="none" xmlns="http://www.w3.org/2000/svg">
<path d="M85.9811 29.5114C85.6468 30.9484 85.4225 32.4213 84.9626 33.8158C82.1159 42.4468 73.3357 47.7084 64.3716 46.2333C64.1047 46.1885 63.6471 46.3588 63.5125 46.5741C59.9726 52.3132 52.682 54.6985 46.3313 51.8334C46.2572 51.7998 46.1742 51.7908 46.0553 51.7594C43.0157 57.7653 38.2398 61.2155 31.3799 61.0294C24.5603 60.8434 19.9818 57.1779 17.2562 51.0555C9.00773 52.4992 2.97557 47.426 0.936441 41.9671C-1.32702 35.9119 0.530409 28.3636 7.12562 24.2341C5.25249 19.4366 5.28838 14.6592 7.65279 10.0007C9.24327 6.86662 11.6548 4.51717 14.746 2.84476C20.3856 -0.204141 29.7355 -0.125676 35.8081 7.41587C39.4175 3.94774 43.6864 2.29551 48.7091 2.98151C53.6982 3.66303 57.3524 6.38686 59.8223 10.4311C61.9332 9.99174 63.9006 9.38644 65.9038 9.20261C74.8051 8.38434 82.9526 14.1459 85.2991 22.8061C85.5818 23.8508 85.7545 24.9246 85.9788 25.985V29.5092L85.9811 29.5114ZM24.1498 28.1529C23.5621 28.1237 23.0304 28.0453 22.5077 28.0834C21.985 28.1215 21.4467 28.2112 20.9599 28.3972C19.8472 28.8254 19.2797 29.8342 19.412 30.991C19.5466 32.159 20.2151 32.9526 21.4826 33.0199C22.7724 33.0872 24.0803 32.9011 25.3746 32.7711C25.5474 32.7531 25.821 32.4213 25.8255 32.2285C25.8569 30.6929 25.8659 29.1572 25.8143 27.6238C25.7851 26.7562 25.4644 25.9895 24.6456 25.5277C23.4432 24.8484 21.0047 25.0322 19.8158 25.9357C19.9482 26.2742 20.085 26.6284 20.1882 26.8952C21.1102 26.7517 21.9492 26.5365 22.7949 26.5118C23.8806 26.4805 24.2507 26.9781 24.152 28.1529H24.1498ZM42.7465 36.2594C44.3235 37.0261 46.0239 36.4701 46.6476 34.9344C46.9885 34.0915 47.1725 33.1723 47.3475 32.2734C47.7086 30.4171 48.0182 28.5519 48.3569 26.6307C48.8976 26.6307 49.4539 26.7831 49.8151 26.5858C50.1336 26.4087 50.2368 25.8415 50.5194 25.2766H48.7024C48.7316 23.6916 49.0613 23.4203 51.0421 23.2881C51.1677 22.9406 51.2956 22.5797 51.4257 22.2187C49.4315 21.5663 47.5785 21.9273 46.9167 25.2609C46.5219 25.2878 46.1159 25.3147 45.7144 25.3438C45.6314 25.7922 45.5618 26.1644 45.4833 26.5836C45.9432 26.6239 46.2954 26.6553 46.753 26.6957C46.3492 28.9039 45.9836 31.0673 45.5551 33.2194C45.1872 35.06 44.9718 35.2057 43.1009 35.2057C42.9865 35.5509 42.8654 35.9119 42.7465 36.2661V36.2594ZM77.1403 29.572C77.6294 26.736 76.0905 24.9224 73.5309 25.1555C71.8686 25.3057 70.7268 26.4894 70.4195 28.3726C70.1256 30.1795 70.7403 31.834 71.9875 32.594C73.329 33.4122 75.7989 33.3853 76.9541 32.5065C76.8218 32.1725 76.6827 31.8228 76.5503 31.4887C73.3178 32.1164 72.1019 31.5874 72.1917 29.572H77.1403ZM37.2056 29.5697C37.6229 27.6821 36.9185 26.0007 35.5344 25.4021C34.0292 24.752 32.1403 25.2362 31.2296 26.5029C30.1304 28.0341 30.2313 30.7848 31.4337 32.0716C32.6047 33.3248 35.3706 33.5893 37.0419 32.5581C36.9297 32.2196 36.8108 31.8631 36.6987 31.5246C33.096 31.9147 32.0663 31.4573 32.3288 29.5675H37.2034L37.2056 29.5697ZM57.6328 29.1684C57.6328 27.2472 56.8589 25.9065 55.4389 25.3663C53.5254 24.6399 51.4571 25.4985 50.7707 27.3055C49.8958 29.6011 50.7572 32.1971 52.6371 32.9302C52.7403 32.9706 52.8457 33.0087 52.9534 33.0378C55.6072 33.7687 57.6328 32.0918 57.6328 29.1684ZM18.3016 25.8774C17.0633 25.1286 15.8228 24.9358 14.5262 25.2587C13.4359 25.5299 12.8101 26.3213 12.7607 27.3301C12.7114 28.3726 13.1555 29.0362 14.266 29.4845C14.8335 29.7132 15.4369 29.8544 16.009 30.0741C16.4778 30.2535 17.0117 30.4552 16.8749 31.1166C16.7425 31.76 16.2041 31.9662 15.6523 31.8721C14.7415 31.7174 13.8509 31.4439 12.9245 31.213C12.3524 32.2756 12.3681 32.5177 13.6064 32.8226C14.6047 33.0692 15.6972 33.1297 16.7201 33.0177C17.7699 32.9011 18.3824 32.0492 18.4766 31.0538C18.573 30.0495 18.1692 29.3478 17.1351 28.877C16.5025 28.5878 15.7936 28.4533 15.1902 28.1215C14.8357 27.9264 14.3826 27.4803 14.3871 27.153C14.3961 26.5612 14.995 26.393 15.5267 26.4692C16.3118 26.5813 17.0857 26.7719 17.9068 26.9378C18.0279 26.6172 18.1535 26.2809 18.3038 25.8796L18.3016 25.8774ZM38.2981 32.2442C39.6261 33.1365 41.0035 33.4234 42.493 33.058C43.5743 32.7935 44.18 32.0738 44.2944 31.009C44.3976 30.0607 43.9511 29.3276 42.9035 28.859C42.2687 28.5743 41.5912 28.3883 40.9474 28.126C40.5032 27.9466 39.9402 27.6843 40.1959 27.1306C40.344 26.8055 40.916 26.4827 41.2884 26.4939C42.0735 26.5186 42.8542 26.7629 43.6483 26.9176C44.2428 25.8595 44.2203 25.6801 43.0718 25.3954C42.3023 25.2026 41.4701 25.1264 40.6782 25.1824C39.5229 25.2654 38.7243 26.0971 38.5875 27.1373C38.4372 28.2829 38.9015 29.0205 40.1241 29.5025C40.667 29.7177 41.2413 29.8522 41.7886 30.0607C42.2575 30.24 42.7914 30.4261 42.6747 31.0897C42.5603 31.7443 42.0287 31.9595 41.4791 31.8698C40.5661 31.7219 39.6732 31.4484 38.6772 31.2063C38.592 31.4416 38.4619 31.7981 38.2981 32.2442ZM69.4908 31.5739C66.8123 32.0492 65.6907 31.5067 65.5942 29.5495C65.5561 28.7671 65.758 27.8345 66.1887 27.1978C66.9828 26.0254 68.3041 26.5993 69.4526 26.6508C69.5872 26.2495 69.7061 25.8931 69.8205 25.5479C67.833 24.6556 65.6279 25.1129 64.5982 26.5836C63.4766 28.1865 63.6807 30.8655 64.9504 32.2016C65.8567 33.1544 68.5082 33.5893 69.8968 32.6141C69.7622 32.2711 69.6231 31.9169 69.4885 31.5739H69.4908ZM29.0087 32.9863V22.1403H27.5102V32.9863H29.0087ZM59.0125 25.3035V32.919C60.5648 33.1499 60.5581 33.1499 60.567 31.7443C60.5738 30.6256 60.5603 29.5069 60.6254 28.3905C60.6882 27.2965 61.3118 26.5881 62.2831 26.6688C63.3375 26.7562 63.3666 26.1083 63.4968 25.4089C62.4379 24.9896 61.5025 25.1981 60.6186 25.8483C60.3225 24.8686 59.6002 25.4268 59.0147 25.3035H59.0125Z" fill="#25A9E0"/>
<path d="M24.2238 31.8429C23.4678 31.8429 22.7814 31.8945 22.1062 31.8272C21.5162 31.769 21.0541 31.4573 21.007 30.7758C20.9621 30.0943 21.2672 29.6033 21.9267 29.4868C22.5459 29.3769 23.1919 29.3881 23.8245 29.4061C23.9614 29.4105 24.1924 29.6661 24.2036 29.8208C24.2485 30.4239 24.2216 31.0336 24.2216 31.8452L24.2238 31.8429Z" fill="#25A9E0"/>
<path d="M75.5857 28.3076H72.2208C72.2657 27.1149 72.8602 26.4782 73.9145 26.467C74.9442 26.4558 75.505 27.0409 75.5857 28.3076Z" fill="#25A9E0"/>
<path d="M35.7273 28.2986H32.2884C32.4185 27.0611 32.9928 26.4692 34.0359 26.4648C35.0431 26.4603 35.5479 26.9894 35.7273 28.2986Z" fill="#25A9E0"/>
<path d="M56.0154 29.2805C55.8966 29.7737 55.8091 30.3566 55.6094 30.8969C55.3425 31.6143 54.7368 31.8698 53.9988 31.8564C53.2854 31.8429 52.6281 31.547 52.5137 30.8632C52.3455 29.8432 52.3006 28.7739 52.4105 27.7493C52.498 26.9199 53.1598 26.4872 54.0391 26.4894C54.9409 26.4917 55.486 26.8705 55.7552 27.7874C55.8876 28.2381 55.9212 28.7156 56.0154 29.2827V29.2805Z" fill="#25A9E0"/>
</svg>
