<svg width="116" height="116" viewBox="0 0 116 116" fill="none" xmlns="http://www.w3.org/2000/svg">
<path d="M30.3594 4.8938C29.0454 5.66411 28.8641 6.75161 28.8641 13.8204V20.5266H26.5079C24.6047 20.5266 23.9704 20.6625 23.1094 21.2516C21.2063 22.5657 20.7079 23.5172 20.5719 26.3266L20.4813 28.8641H13.7297C4.80317 28.8641 4.5313 29 4.5313 33.6672C4.5313 36.1141 4.57661 36.3407 5.43755 37.2016L6.3438 38.1079H13.4125H20.4813V41.5969V45.1313L13.2313 45.2219L5.9813 45.3125L5.21099 46.2188C4.5313 47.0344 4.44067 47.4422 4.44067 49.8438C4.44067 52.4266 4.48599 52.6079 5.34692 53.5141L6.25317 54.4204H13.3219H20.3907V57.9547V61.4891H13.4579H6.38911L5.48286 62.3954C4.57661 63.3016 4.57661 63.4829 4.57661 66.0657C4.57661 68.4672 4.66724 68.875 5.34692 69.6907L6.11724 70.5969L13.3672 70.6875L20.6172 70.7782V74.3125V77.8016H13.4579H6.38911L5.48286 78.7079C4.62192 79.6141 4.57661 79.7954 4.57661 82.2422C4.57661 86.9094 4.84849 87.0454 13.8657 87.0454H20.5719V89.4016C20.5719 91.3047 20.7079 91.9391 21.2969 92.8C22.5657 94.7032 23.5172 95.2016 26.3719 95.3375L28.9094 95.4282V102.134C28.9094 111.106 29.0907 111.333 33.8938 111.333C36.1141 111.333 36.386 111.288 37.2469 110.427L38.1532 109.52V102.452V95.3829H41.6422H45.1766L45.2672 102.633L45.3579 109.883L46.2641 110.653C47.0797 111.333 47.4875 111.423 49.8891 111.423C52.4719 111.423 52.6532 111.378 53.5594 110.517L54.4657 109.611V102.542V95.4735H58H61.5344V102.542V109.611L62.4407 110.517C63.3469 111.423 63.5282 111.423 66.111 111.423C68.5125 111.423 68.9204 111.333 69.736 110.653L70.6422 109.883L70.7329 102.633L70.8235 95.3829H74.3579H77.8469V102.452V109.52L78.7532 110.427C79.6141 111.288 79.886 111.333 82.1063 111.333C86.9547 111.333 87.0907 111.061 87.0907 102.134V95.4282L89.6282 95.3375C92.3469 95.2016 93.2985 94.7485 94.6125 92.9813C95.111 92.3016 95.3375 91.486 95.4282 89.5376L95.5188 87H102.225C111.197 87 111.423 86.8188 111.423 82.0157C111.423 79.7954 111.378 79.5235 110.517 78.6626L109.611 77.7563H102.542H95.4735V74.2672V70.7329L102.723 70.6422L109.973 70.5516L110.744 69.6454C111.423 68.8297 111.514 68.4219 111.514 66.0204C111.514 63.4375 111.469 63.2563 110.608 62.3501L109.702 61.4438H102.633H95.5641V58V54.4657H102.633H109.702L110.608 53.5594C111.514 52.6532 111.514 52.4719 111.514 49.8891C111.514 47.4875 111.423 47.0797 110.744 46.2641L109.973 45.3579L102.723 45.2672L95.4735 45.1766V41.6422V38.1532H102.542H109.611L110.517 37.2469C111.378 36.3407 111.423 36.1594 111.423 33.7125C111.423 29.0454 111.152 28.9094 102.134 28.9094H95.4282V26.5532C95.4282 24.65 95.2922 24.0157 94.7032 23.1094C93.4344 21.2063 92.1204 20.5719 89.4922 20.5719H87.136V13.8204C87.136 4.80317 87 4.5313 82.3329 4.5313C79.886 4.5313 79.6594 4.57661 78.7985 5.43755L77.8922 6.3438V13.4125V20.4813H74.4032H70.8688L70.7782 13.2313L70.6875 5.9813L69.7813 5.21099C68.9657 4.5313 68.5579 4.44067 66.1563 4.44067C63.5735 4.44067 63.3922 4.48599 62.486 5.34692L61.5797 6.25317V13.3219V20.3907H58H54.4657V13.4579V6.38911L53.5594 5.48286C52.6532 4.57661 52.4719 4.57661 49.8891 4.57661C47.4875 4.57661 47.0797 4.66724 46.2641 5.34692L45.3579 6.11724L45.2672 13.3672L45.1766 20.6172H41.6422H38.1532V13.4579V6.38911L37.2469 5.48286C36.3407 4.62192 36.1594 4.57661 33.6219 4.57661C32.1266 4.5313 30.6766 4.71255 30.3594 4.8938ZM55.6891 41.5969C55.8704 42.0954 58.3625 48.8922 61.2172 56.7313C64.1172 64.5704 66.5188 71.2313 66.6094 71.5032C66.7454 72.0469 66.3375 72.0922 61.761 72.0922H56.7766L56.0969 69.8719L55.3719 67.6063L50.3875 67.6969L45.4032 67.7876L44.6782 69.8719L43.9532 71.9563L39.0594 72.0469C34.4829 72.0922 34.211 72.0922 34.4375 71.5485C34.6188 71.05 45.2219 42.2313 45.6297 41.0985C45.7204 40.8266 46.9891 40.736 50.5688 40.736H55.3266L55.6891 41.5969ZM78.436 56.3235L78.3454 71.9563H73.5422H68.7391L68.6485 56.3235L68.6032 40.736H73.5875H78.5719L78.436 56.3235Z" fill="#25A9E0"/>
<path d="M49.1189 55.8703C48.3939 58.2266 47.7595 60.311 47.7595 60.4922C47.7595 60.7641 48.6658 60.8547 50.6595 60.8547C52.8798 60.8547 53.5595 60.7641 53.4236 60.4469C53.3783 60.2656 52.7439 58.136 52.0642 55.825C51.3392 53.5141 50.7048 51.611 50.6142 51.611C50.5236 51.611 49.8439 53.5141 49.1189 55.8703Z" fill="#25A9E0"/>
</svg>
