<svg width="84" height="84" viewBox="0 0 84 84" fill="none" xmlns="http://www.w3.org/2000/svg">
<path d="M81.4604 0.571411C82.8675 1.2207 83.3114 2.33536 83.2699 3.84782C83.1917 6.68895 83.2511 9.53398 83.2459 12.3774C83.2425 14.236 82.2999 15.1893 80.4578 15.1929C77.3712 15.1992 74.2847 15.2007 71.1982 15.1924C69.4479 15.1877 68.4823 14.222 68.4653 12.484C68.4588 11.8077 68.4643 11.1312 68.4643 10.3877H58.6364C59.4074 10.9483 60.1288 11.4405 60.815 11.9773C67.5668 17.2573 71.5743 24.156 72.8322 32.62C73.0667 34.1981 73.3082 35.3655 74.9952 36.2692C77.9318 37.8421 78.9137 41.6568 77.6782 44.8915C76.5452 47.8575 73.2341 49.8193 70.0772 49.395C66.8498 48.9612 64.2839 46.6178 63.7498 43.6164C63.1428 40.2058 64.6543 37.1829 67.771 35.6134C68.1221 35.4366 68.301 35.2783 68.252 34.8254C67.4262 27.219 64.1196 20.9594 58.145 16.1478C55.3253 13.8772 52.1363 12.3255 48.6541 11.3534C48.2238 11.2334 48.0381 11.3716 47.8145 11.7168C44.8115 16.3517 38.5038 16.3544 35.5081 11.7178C35.2517 11.3211 35.0326 11.2603 34.5915 11.3805C24.3479 14.171 16.6118 23.0151 15.207 33.5309C15.0591 34.639 15.0495 35.3935 16.2975 36.0906C18.9928 37.5961 20.1164 40.525 19.5694 43.6134C19.0908 46.3157 16.7328 48.7674 13.9673 49.2898C10.8563 49.8775 8.29192 48.8716 6.42472 46.3118C3.82045 42.7416 5.22365 37.4954 9.2739 35.6512C9.96403 35.3369 10.2168 34.9577 10.2872 34.2316C11.0592 26.261 14.3364 19.4842 20.1362 13.9668C21.5011 12.6684 23.0493 11.5631 24.5138 10.3683H14.8546C14.8546 11.0478 14.8604 11.767 14.8533 12.4862C14.8366 14.2227 13.8698 15.1874 12.1189 15.1924C9.19487 15.2007 6.26927 15.14 3.34706 15.2174C1.8351 15.2573 0.720359 14.815 0.0714417 13.4076V2.35883L1.85831 0.571411H13.0678C15.3385 1.52798 14.7892 3.58135 14.8674 5.44594H15.8014C21.7559 5.44594 27.7104 5.43492 33.6646 5.45945C34.4317 5.46263 34.989 5.39562 35.2418 4.51764C35.3769 4.04869 35.7673 3.64265 36.0806 3.23757C37.2501 1.72506 38.893 1.0167 40.6848 0.571411H42.6341C42.7327 0.614347 42.8274 0.675792 42.9307 0.697184C45.4708 1.2201 47.254 2.67187 48.3594 5.01684C48.4684 5.24826 48.9426 5.42708 49.2482 5.42814C55.3921 5.45186 61.5359 5.44594 67.6798 5.44594H68.4513C68.5298 3.58135 67.9805 1.52798 70.2512 0.571411H81.4604Z" fill="#25A9E0"/>
<path d="M39.2223 21.9905C39.2223 26.4544 39.2223 30.6767 39.2223 34.8988C39.2223 38.0663 39.2137 41.2338 39.2317 44.4009C39.2346 44.8629 39.1107 45.1069 38.6663 45.3123C35.8499 46.614 34.1121 49.4932 34.3784 52.3366C34.6937 55.7006 36.7805 58.1941 39.969 59.0159C43.3813 59.8953 47.3012 57.8349 48.4652 54.5499C49.7656 50.8805 48.2623 47.0026 44.8693 45.4226C44.2543 45.1362 44.0793 44.807 44.0814 44.1575C44.1046 37.1189 44.096 30.0802 44.096 23.0416V22.0791C44.3086 22.329 44.4507 22.466 44.5576 22.6261C50.6809 31.8091 56.8025 40.9931 62.9203 50.1799C63.8558 51.5846 63.853 52.6057 62.7356 53.7701C58.4585 58.2262 55.7658 63.4902 54.5478 69.5287C54.5217 69.659 54.482 69.7869 54.4319 69.9794C54.2123 69.9269 54.017 69.8675 53.8175 69.8341C52.0929 69.5453 50.3726 69.0577 48.6415 69.0148C43.9888 68.8998 39.3295 68.902 34.6765 69.0112C32.7561 69.0563 30.8448 69.4942 28.8446 69.7652C28.6519 68.9817 28.4367 67.9862 28.161 67.0073C26.7792 62.1021 24.3687 57.7775 20.8516 54.0747C19.4392 52.5877 19.3858 51.6974 20.5323 49.9768C26.5622 40.9266 32.5928 31.877 38.6245 22.8282C38.7703 22.6091 38.9297 22.3994 39.2223 21.9905Z" fill="#25A9E0"/>
<path d="M41.6469 83.7611C37.0734 83.7611 32.5002 83.7661 27.927 83.7535C27.474 83.7522 26.9954 83.7197 26.5734 83.573C25.2977 83.1302 24.709 81.8213 25.1563 80.5515C26.5567 76.5758 30.1808 73.9066 34.4065 73.8631C39.2499 73.8132 44.0949 73.8101 48.9381 73.8647C53.1302 73.9119 56.5641 76.4237 58.1043 80.4281C58.7242 82.04 57.743 83.6036 56.0156 83.7475C55.7467 83.77 55.475 83.7606 55.2045 83.7606C50.6853 83.7613 46.1661 83.7611 41.6469 83.7611Z" fill="#25A9E0"/>
<path d="M44.0907 51.8951C44.1018 53.2203 43.0056 54.3349 41.6799 54.346C40.3549 54.3573 39.2407 53.2608 39.2295 51.9348C39.2183 50.6096 40.3145 49.4953 41.6403 49.4839C42.9652 49.4726 44.0794 50.5691 44.0907 51.8951Z" fill="#25A9E0"/>
</svg>
