<svg width="53" height="88" viewBox="0 0 53 88" fill="none" xmlns="http://www.w3.org/2000/svg">
<path d="M0.856194 74.3991V13.5229H52.6517V74.3991H0.856194ZM26.8593 54.7314C21.6987 54.7314 16.5382 54.7314 11.3776 54.7318C11.1093 54.7321 10.7809 54.6437 10.5861 54.7658C10.2699 54.964 9.8089 55.3247 9.83302 55.5758C9.86514 55.9087 10.2708 56.2466 10.5856 56.4927C10.7361 56.61 11.0475 56.5248 11.2859 56.5248C21.607 56.5252 31.9284 56.5252 42.2494 56.5239C42.5172 56.5239 42.8603 56.6079 43.0364 56.4759C43.3339 56.2532 43.6891 55.9001 43.7113 55.5803C43.729 55.3226 43.3318 54.9708 43.0407 54.7798C42.8493 54.6544 42.5196 54.7326 42.2518 54.7326C37.121 54.7311 31.9901 54.7314 26.8593 54.7314ZM26.8593 61.9064C21.6987 61.9064 16.5382 61.9062 11.3776 61.907C11.1093 61.907 10.7809 61.8185 10.5861 61.9406C10.2699 62.1388 9.8089 62.4998 9.83302 62.751C9.86514 63.0837 10.2708 63.4216 10.5856 63.6674C10.7361 63.7851 11.0475 63.6995 11.2859 63.6995C21.607 63.7003 31.9284 63.7003 42.2494 63.699C42.5172 63.699 42.8603 63.7827 43.0364 63.651C43.3339 63.428 43.6891 63.0752 43.7113 62.7554C43.729 62.4977 43.3318 62.1459 43.0407 61.955C42.8493 61.8292 42.5196 61.9077 42.2518 61.9075C37.121 61.9059 31.9901 61.9064 26.8593 61.9064ZM21.3355 42.175C24.7063 42.175 28.0771 42.1753 31.4479 42.175C31.6565 42.175 31.9216 42.2543 32.0632 42.156C32.4134 41.9129 32.7071 41.5885 33.0235 41.2966C32.7197 40.9927 32.4296 40.6724 32.1026 40.3962C32.0147 40.3222 31.8136 40.3816 31.6644 40.3816C24.8335 40.3814 18.0025 40.3814 11.1716 40.3819C10.963 40.3822 10.6899 40.3091 10.5587 40.4128C10.2605 40.6475 9.83646 40.9672 9.8308 41.2596C9.82478 41.5533 10.2217 41.9155 10.5246 42.132C10.7056 42.2613 11.0446 42.1743 11.3128 42.1743C14.6538 42.1755 17.9947 42.175 21.3355 42.175ZM21.3102 49.3499C24.8298 49.3499 28.35 49.3462 31.8696 49.353C32.4815 49.3543 32.9818 49.1626 33.0061 48.4965C33.0324 47.7729 32.524 47.5468 31.8688 47.5544C31.004 47.5641 30.1388 47.5565 29.2737 47.5565C23.2183 47.5565 17.1629 47.5515 11.1074 47.569C10.7459 47.57 10.3158 47.6629 10.0474 47.8768C9.86049 48.0254 9.74179 48.5943 9.86387 48.7296C10.1259 49.0207 10.5616 49.3194 10.9298 49.3239C14.3894 49.3676 17.8499 49.3499 21.3102 49.3499ZM24.1586 19.6049C23.9266 19.3838 23.681 18.9565 23.4038 18.9349C23.0725 18.9088 22.5363 19.1383 22.3946 19.4145C20.5718 22.9699 18.7961 26.55 17.0288 30.1339C16.7524 30.6944 17.0035 31.1557 17.5638 31.3496C18.1649 31.5576 18.4964 31.1605 18.7435 30.6654C20.4594 27.2232 22.1802 23.7832 23.8949 20.3401C23.9862 20.1571 24.0355 19.9529 24.1586 19.6049ZM10.0501 25.0988C11.0887 24.1022 12.0359 23.205 12.9692 22.2931C13.3802 21.8915 13.5258 21.4142 13.0847 20.9538C12.6095 20.4581 12.1239 20.6077 11.6854 21.0462C10.5895 22.1419 9.50036 23.2439 8.39906 24.3341C7.83938 24.8881 7.86021 25.4045 8.41367 25.9506C9.47427 26.997 10.5227 28.0557 11.5715 29.1141C12.0062 29.5528 12.4866 29.8806 13.0351 29.3596C13.6245 28.7998 13.3007 28.287 12.8326 27.828C11.9608 26.9736 11.0897 26.1186 10.0501 25.0988ZM30.9925 25.1032C29.9406 26.1249 29.0264 27.0114 28.1133 27.8992C27.6509 28.3488 27.4334 28.8535 27.9772 29.3647C28.4842 29.8412 28.9565 29.5961 29.3786 29.1725C30.4302 28.117 31.4935 27.0732 32.5354 26.0082C33.2168 25.3119 33.2184 24.9598 32.5418 24.2673C31.5212 23.223 30.4769 22.2021 29.449 21.1649C28.9854 20.6969 28.481 20.3699 27.9227 20.9606C27.4031 21.5099 27.7208 21.9992 28.1695 22.4256C29.0716 23.2832 29.9756 24.139 30.9925 25.1032Z" fill="#25A9E0"/>
<path d="M0.87742 11.6169C0.87742 10.201 0.724642 8.81213 0.906398 7.46884C1.43639 3.55274 4.5357 0.927299 8.50929 0.922848C18.6462 0.911672 28.7835 0.919005 38.9204 0.919005C40.9778 0.919005 43.0352 0.906716 45.0923 0.921888C49.4137 0.953444 52.67 4.199 52.7188 8.51345C52.7303 9.52623 52.7206 10.5395 52.7206 11.6169H0.87742Z" fill="#25A9E0"/>
<path d="M52.6562 76.3196C52.6562 77.7395 52.8117 79.1291 52.6271 80.4718C52.0872 84.3968 48.999 87.0097 45.0235 87.0152C36.0194 87.0272 27.0154 87.0191 18.0115 87.0191C14.8811 87.0191 11.7505 87.0256 8.61987 87.0173C4.07648 87.0053 0.838711 83.7745 0.816561 79.2407C0.811858 78.288 0.815903 77.335 0.815903 76.3196H52.6562Z" fill="#25A9E0"/>
</svg>
