<svg width="15" height="13" viewBox="0 0 15 13" fill="none" xmlns="http://www.w3.org/2000/svg">
<path d="M7.76891 0.351914C7.94081 0.180066 8.17393 0.0835266 8.41699 0.0835266C8.66006 0.0835266 8.89318 0.180066 9.06508 0.351914L14.5651 5.85191C14.7369 6.02381 14.8335 6.25693 14.8335 6.5C14.8335 6.74306 14.7369 6.97618 14.5651 7.14808L9.06508 12.6481C8.89219 12.8151 8.66064 12.9075 8.42029 12.9054C8.17994 12.9033 7.95003 12.8069 7.78008 12.6369C7.61012 12.467 7.51371 12.237 7.51162 11.9967C7.50954 11.7564 7.60193 11.5248 7.76891 11.3519L11.7042 7.41666H1.08366C0.840544 7.41666 0.607386 7.32009 0.435478 7.14818C0.263569 6.97627 0.166992 6.74311 0.166992 6.5C0.166992 6.25688 0.263569 6.02372 0.435478 5.85182C0.607386 5.67991 0.840544 5.58333 1.08366 5.58333H11.7042L7.76891 1.64808C7.59706 1.47618 7.50052 1.24306 7.50052 0.999997C7.50052 0.75693 7.59706 0.523815 7.76891 0.351914Z" fill="white"/>
</svg>
