<svg width="83" height="89" viewBox="0 0 83 89" fill="none" xmlns="http://www.w3.org/2000/svg">
<path d="M23.023 35.2613C22.4245 38.4104 22.7807 42.9348 23.7771 44.4773C22.7259 45.5104 22.8218 46.8927 22.8356 48.2618C22.8488 49.5669 22.8172 50.8725 22.847 52.1771C22.8929 54.1995 24.2252 55.5988 26.2372 55.778C26.4962 55.8009 26.7574 55.8017 27.0177 55.802C36.655 55.803 46.2925 55.7986 55.93 55.808C57.1506 55.809 58.3475 55.6338 59.0844 54.6025C59.5684 53.9252 59.9504 53.0433 60.0157 52.2238C60.1553 50.4732 60.1286 48.6997 60.0295 46.9433C59.9823 46.1035 59.6151 45.2819 59.3512 44.2976C60.7603 41.4836 59.8329 38.286 60.0029 35.0459C63.8142 34.5336 67.2132 32.9507 69.4474 29.4688C71.6448 26.0445 71.9348 22.3456 70.7611 18.402C71.0442 18.3736 71.2826 18.3295 71.521 18.329C74.3211 18.3241 77.1209 18.3191 79.9211 18.3285C81.5311 18.334 82.2341 19.0317 82.2351 20.6732C82.2422 33.4961 82.2392 46.3192 82.2364 59.142C82.2364 59.3947 82.198 59.6472 82.174 59.9443H0.40016V58.8653C0.40016 46.2055 0.399705 33.5456 0.400463 20.8858C0.400716 18.8512 0.919483 18.3277 2.93377 18.3264C5.95954 18.3243 8.98531 18.3259 12.1534 18.3259C10.9412 22.2673 11.2706 25.9811 13.4922 29.4093C15.7188 32.8448 18.9472 34.7214 23.023 35.2613Z" fill="#25A9E0"/>
<path d="M60.0621 32.7135C60.0621 30.7349 60.0657 28.8134 60.0613 26.8923C60.055 24.2564 58.6417 22.8209 56.0358 22.8201C46.2994 22.8165 36.5628 22.8162 26.8262 22.8204C24.2772 22.8217 22.8522 24.2601 22.8407 26.832C22.8316 28.8471 22.8388 30.8624 22.8388 32.8762C19.1 32.7414 15.219 29.4352 14.0879 25.385C12.2943 18.9613 16.9521 12.6086 23.6125 12.396C23.8403 12.3887 24.0684 12.3871 24.296 12.3793C25.4577 12.3386 25.7104 12.0152 25.8128 10.8272C25.9183 9.60135 25.9833 8.33508 26.3481 7.17575C27.6381 3.07673 31.4085 0.252079 35.5976 0.0929796C39.8486 -0.0684664 43.8306 2.47164 45.5133 6.42016C45.6284 6.68984 45.7321 6.96396 45.8339 7.23886C46.1239 8.02236 46.6557 8.25814 47.4552 8.02705C51.2454 6.93214 54.3778 8.19007 56.3031 11.619C56.7134 12.3496 57.257 12.4484 58.0053 12.4077C63.1347 12.1282 67.5137 15.1341 68.8005 19.7792C70.542 26.066 66.7121 31.7834 60.0621 32.7135Z" fill="#25A9E0"/>
<path d="M82.1937 62.2957C82.1937 64.3765 82.2466 66.3927 82.1705 68.4038C82.1348 69.3522 81.4311 69.8949 80.471 69.9758C80.1796 70.0005 79.8852 69.9875 79.5923 69.9875C54.0654 69.9878 28.5389 69.988 3.01237 69.9878C0.817541 69.9878 0.40103 69.567 0.400272 67.3561C0.399715 65.6945 0.400272 64.0328 0.400272 62.2957H82.1937ZM74.1498 67.2257C74.6049 67.2257 75.1321 67.37 75.4966 67.1879C75.9189 66.9771 76.4168 66.5074 76.4693 66.0969C76.5097 65.7816 75.952 65.1329 75.5883 65.0729C74.6712 64.9214 73.6975 64.9196 72.7792 65.0651C72.406 65.1243 71.8314 65.7479 71.8616 66.0656C71.9008 66.4772 72.3869 66.9667 72.8045 67.1848C73.1626 67.3715 73.6947 67.2234 74.1498 67.2257ZM57.1201 67.2226V67.2294C57.5414 67.2294 58.034 67.3673 58.3653 67.1947C58.7879 66.9745 59.2694 66.5531 59.3817 66.1274C59.5406 65.5265 59.0654 65.0674 58.435 65.027C57.5651 64.9712 56.6703 64.913 55.8244 65.0672C55.4591 65.1337 54.9137 65.757 54.946 66.0773C54.9874 66.4858 55.4674 66.9555 55.8776 67.1866C56.1975 67.3668 56.6992 67.2226 57.1201 67.2226ZM65.71 67.227V67.2323C66.0991 67.2323 66.4903 67.258 66.8771 67.2265C67.554 67.1715 68.0688 66.7557 67.9446 66.1128C67.8641 65.695 67.3475 65.1376 66.942 65.0547C66.1335 64.8893 65.2426 64.8893 64.4351 65.0583C64.035 65.1421 63.4743 65.7566 63.48 66.123C63.4859 66.4959 64.0412 66.968 64.4641 67.192C64.7935 67.3665 65.2885 67.227 65.71 67.227Z" fill="#25A9E0"/>
<path d="M41.4994 35.3201C46.2843 35.3201 51.0693 35.3188 55.8543 35.3206C57.4559 35.3211 57.8456 35.721 57.848 37.3561C57.8504 38.7587 57.858 40.1617 57.8456 41.5641C57.8347 42.8087 57.3607 43.3142 56.145 43.3152C46.3472 43.3233 36.5493 43.323 26.7511 43.3152C25.5701 43.3144 25.0699 42.8168 25.056 41.6601C25.0373 40.0946 25.0376 38.5284 25.0558 36.9627C25.0697 35.8031 25.5664 35.3248 26.7534 35.3232C31.6687 35.3162 36.584 35.3201 41.4994 35.3201ZM50.8278 40.4238C51.9983 40.4238 53.1692 40.435 54.3398 40.4199C55.0677 40.4102 55.5241 40.0393 55.5172 39.2863C55.5107 38.5769 55.0606 38.2188 54.382 38.2141C52.0408 38.1985 49.6997 38.2006 47.3586 38.2105C46.6284 38.2136 46.1526 38.6035 46.1738 39.3419C46.1949 40.0738 46.6813 40.4261 47.4134 40.4246C48.5516 40.4222 49.6898 40.4241 50.8278 40.4238ZM40.3447 37.3088C39.2764 37.3182 38.35 38.2582 38.3588 39.3239C38.3674 40.4006 39.2921 41.3087 40.3719 41.3014C41.4585 41.2941 42.363 40.3781 42.3522 39.2955C42.3418 38.2191 41.4124 37.2994 40.3447 37.3088ZM31.1495 39.339C31.1623 38.2301 30.299 37.3279 29.2075 37.3094C28.1438 37.2914 27.2075 38.2058 27.1895 39.2801C27.1716 40.3732 28.0495 41.2782 29.1459 41.2967C30.2477 41.3155 31.1368 40.4467 31.1495 39.339ZM32.8021 39.3544C32.8216 40.4621 33.716 41.3244 34.8169 41.2967C35.9137 41.2693 36.7806 40.3604 36.7551 39.2645C36.73 38.1847 35.7932 37.2822 34.7256 37.3091C33.6357 37.3368 32.7826 38.2439 32.8021 39.3544Z" fill="#25A9E0"/>
<path d="M41.3467 53.5453C36.5618 53.5453 31.777 53.5469 26.992 53.5445C25.4926 53.5438 25.0588 53.1191 25.0536 51.6484C25.0481 50.1805 25.0405 48.7123 25.0562 47.2447C25.069 46.0624 25.5508 45.552 26.7116 45.551C36.5416 45.5421 46.3718 45.5419 56.2019 45.5512C57.3551 45.5523 57.8331 46.0687 57.8448 47.2575C57.8593 48.7251 57.8529 50.1933 57.8471 51.6609C57.8416 53.0938 57.4031 53.5427 55.9939 53.5438C51.1115 53.5477 46.229 53.5453 41.3467 53.5453ZM50.8024 50.663C51.9403 50.663 53.0786 50.6654 54.2165 50.6622C54.963 50.6601 55.5232 50.3743 55.5154 49.548C55.5081 48.7355 54.9726 48.4364 54.2123 48.4385C51.9685 48.4442 49.725 48.4466 47.4814 48.4374C46.7107 48.4341 46.1787 48.7622 46.1747 49.5511C46.1708 50.3531 46.7318 50.6646 47.4856 50.664C48.5912 50.6633 49.6968 50.6638 50.8024 50.663ZM40.3121 51.5542C41.3832 51.5842 42.3195 50.687 42.3504 49.6012C42.3811 48.5162 41.4969 47.5916 40.4043 47.5663C39.3165 47.541 38.3893 48.4213 38.3597 49.5073C38.3311 50.5683 39.2429 51.5245 40.3121 51.5542ZM31.1463 49.5923C31.1657 48.4781 30.3143 47.5851 29.2134 47.5647C28.1232 47.5446 27.209 48.4254 27.1886 49.5159C27.1688 50.5907 28.0663 51.5284 29.1399 51.554C30.227 51.5798 31.1273 50.6998 31.1463 49.5923ZM32.802 49.511C32.783 50.6192 33.64 51.5294 34.7271 51.5558C35.7918 51.5819 36.7307 50.6747 36.755 49.5976C36.7797 48.5011 35.9131 47.5947 34.8149 47.5682C33.7123 47.5415 32.8208 48.402 32.802 49.511Z" fill="#25A9E0"/>
<path d="M41.4512 33.0624C36.6678 33.0624 31.8845 33.0645 27.1013 33.0611C25.4154 33.06 25.0549 32.6892 25.053 30.9803C25.0518 29.5781 25.0416 28.176 25.0568 26.7738C25.0695 25.584 25.5344 25.1009 26.7106 25.1001C36.5377 25.0926 46.3646 25.0928 56.1917 25.1001C57.3663 25.1009 57.8332 25.5858 57.845 26.7743C57.8599 28.2743 57.856 29.7745 57.8466 31.2745C57.8382 32.5869 57.4156 33.0441 56.0931 33.0488C51.2123 33.0653 46.3318 33.0553 41.4512 33.0553V33.0624ZM50.8545 30.2098C51.9612 30.2098 53.0678 30.2137 54.1745 30.2085C54.9103 30.2051 55.489 29.936 55.5143 29.116C55.542 28.2315 54.9404 27.9415 54.164 27.9386C51.9507 27.9308 49.7374 27.9329 47.5242 27.9373C46.787 27.9389 46.196 28.2266 46.1762 29.0307C46.1549 29.8877 46.7462 30.2067 47.5345 30.2093C48.6412 30.2127 49.748 30.2101 50.8545 30.2098ZM31.1464 29.0437C31.1335 27.9251 30.2681 27.08 29.1494 27.0933C28.053 27.1061 27.1759 28.0049 27.191 29.0998C27.2064 30.2033 28.0909 31.0583 29.2048 31.0463C30.3264 31.034 31.1594 30.1746 31.1464 29.0437ZM34.732 31.0465C35.846 31.0645 36.7353 30.2145 36.7568 29.1118C36.7782 28.013 35.9107 27.1126 34.8116 27.0933C33.6942 27.0738 32.822 27.9157 32.8038 29.0317C32.785 30.1626 33.6136 31.0285 34.732 31.0465ZM40.3845 31.0478C41.4823 31.0364 42.3672 30.1352 42.3513 29.0453C42.3352 27.9532 41.4314 27.0792 40.3324 27.0923C39.2506 27.1053 38.3436 28.0281 38.3608 29.0982C38.3783 30.184 39.2867 31.0591 40.3845 31.0478Z" fill="#25A9E0"/>
<path d="M49.5525 82.3805H33.2419C33.283 82.1017 33.3012 81.8518 33.3583 81.6114C34.0344 78.7598 34.7187 75.9104 35.3937 73.0589C35.5012 72.6051 35.5549 72.2086 36.2127 72.2144C39.8576 72.2459 43.5031 72.2334 47.1482 72.2394C47.2414 72.2396 47.3345 72.2785 47.515 72.3187C48.1853 75.6285 48.8608 78.9643 49.5525 82.3805Z" fill="#25A9E0"/>
<path d="M57.0463 84.6162V88.0336H25.6489V84.6162H57.0463Z" fill="#25A9E0"/>
</svg>
