<svg xmlns="http://www.w3.org/2000/svg" width="95.404" height="59.491" viewBox="0 0 95.404 59.491">
  <g id="Group_3084" data-name="Group 3084" transform="translate(-122.438 -11)">
    <g id="Group_2" data-name="Group 2" transform="translate(323.703 25.714)">
      <g id="Group_1" data-name="Group 1" transform="translate(-201.265 8.694)">
        <path id="Path_1" data-name="Path 1" d="M-122.574,13.816c-.522,0-1.035.034-1.545.085a29.681,29.681,0,0,1,.624,6.061c0,.627-.026,1.247-.064,1.864a10.029,10.029,0,0,1,9.664,10.022h0a10.031,10.031,0,0,1-10.031,10.031h-9.3a29.445,29.445,0,0,1-19.825,7.638A29.447,29.447,0,0,1-172.961,41.8c-3.966-.007-7.093-.012-8.53-.012-6.3,0-11.4-4.568-11.4-10.2,0-5.31,4.534-9.672,10.326-10.157q-.036-.727-.037-1.465a29.663,29.663,0,0,1,.6-5.929,15.623,15.623,0,0,0-2.546-.217c-9.23,0-16.712,8.077-16.712,18.041S-193.783,49.9-184.553,49.9c.327,0,.65-.013.971-.033V49.9h61.007c9.23,0,16.713-8.077,16.713-18.042S-113.344,13.816-122.574,13.816Z" transform="translate(201.265 -13.816)" fill="#404041"/>
        <path id="Path_2" data-name="Path 2" d="M-165.224,25l.025-.023a1.918,1.918,0,0,0,.309-2.431,17.622,17.622,0,0,0-3.726-4.238A21.81,21.81,0,0,0-168.8,21.1a21.77,21.77,0,0,0,.254,3.316q.4.287.771.6A1.917,1.917,0,0,0-165.224,25Z" transform="translate(195.437 -14.623)" fill="#404041"/>
      </g>
      <path id="Path_3" data-name="Path 3" d="M-148.965-14.714A29.554,29.554,0,0,0-178.519,14.84q0,.737.035,1.465l.023.007a12.33,12.33,0,0,1,1.36-.076,10.794,10.794,0,0,1,6.809,2.26,21.707,21.707,0,0,1-.254-3.32A21.581,21.581,0,0,1-148.965-6.405a21.581,21.581,0,0,1,21.581,21.581,21.582,21.582,0,0,1-21.581,21.581,21.777,21.777,0,0,1-2.243-.12v.029h-17.683l.016.015a29.447,29.447,0,0,0,19.911,7.714A29.554,29.554,0,0,0-119.411,14.84,29.554,29.554,0,0,0-148.965-14.714Z" transform="translate(-4.084)" fill="#25a9e0"/>
    </g>
  </g>
</svg>
