<svg xmlns="http://www.w3.org/2000/svg" width="56.001" height="34.921" viewBox="0 0 56.001 34.921">
  <g id="Group_1134" data-name="Group 1134" transform="translate(0)">
    <g id="Group_1" data-name="Group 1" transform="translate(0 13.74)">
      <path id="Path_1" data-name="Path 1" d="M-155.074,13.816c-.306,0-.608.02-.907.05a17.425,17.425,0,0,1,.366,3.558c0,.368-.015.732-.038,1.094A5.887,5.887,0,0,1-149.98,24.4h0a5.888,5.888,0,0,1-5.888,5.888h-5.458a17.283,17.283,0,0,1-11.637,4.483,17.285,17.285,0,0,1-11.688-4.53c-2.328,0-4.163-.007-5.007-.007-3.7,0-6.692-2.682-6.692-5.99,0-3.117,2.661-5.677,6.061-5.962q-.021-.427-.022-.86a17.412,17.412,0,0,1,.35-3.481,9.171,9.171,0,0,0-1.494-.127c-5.418,0-9.81,4.741-9.81,10.59S-196.873,35-191.455,35c.192,0,.381-.008.57-.019V35h35.811c5.418,0,9.81-4.741,9.81-10.591S-149.656,13.816-155.074,13.816Z" transform="translate(201.265 -13.816)" fill="#fff"/>
      <path id="Path_2" data-name="Path 2" d="M-166.7,22.238l.015-.013a1.126,1.126,0,0,0,.181-1.427,10.344,10.344,0,0,0-2.187-2.487,12.8,12.8,0,0,0-.109,1.64,12.776,12.776,0,0,0,.149,1.947q.235.168.453.354A1.125,1.125,0,0,0-166.7,22.238Z" transform="translate(184.436 -16.146)" fill="#fff"/>
    </g>
    <path id="Path_3" data-name="Path 3" d="M-161.171-14.714A17.348,17.348,0,0,0-178.519,2.634q0,.433.021.86l.014,0a7.236,7.236,0,0,1,.8-.045,6.336,6.336,0,0,1,4,1.327,12.739,12.739,0,0,1-.149-1.949A12.668,12.668,0,0,1-161.171-9.837,12.668,12.668,0,0,1-148.5,2.831,12.668,12.668,0,0,1-161.171,15.5a12.783,12.783,0,0,1-1.317-.07v.017h-10.38l.009.009a17.285,17.285,0,0,0,11.688,4.528A17.348,17.348,0,0,0-143.823,2.634,17.348,17.348,0,0,0-161.171-14.714Z" transform="translate(189.474 14.714)" fill="#25a9e0"/>
  </g>
</svg>
