<svg xmlns="http://www.w3.org/2000/svg" width="26.441" height="25.204" viewBox="0 0 26.441 25.204">
  <path id="Path_9640" data-name="Path 9640" d="M-146.691,371.982l2.731,8.407a.569.569,0,0,0,.541.393h8.839a.568.568,0,0,1,.334,1.027l-7.151,5.2a.569.569,0,0,0-.207.635l2.732,8.407a.568.568,0,0,1-.874.635l-7.152-5.2a.569.569,0,0,0-.667,0l-7.152,5.2a.568.568,0,0,1-.874-.635l2.732-8.407a.569.569,0,0,0-.207-.635l-7.151-5.2a.568.568,0,0,1,.334-1.027h8.839a.57.57,0,0,0,.541-.393l2.731-8.407A.569.569,0,0,1-146.691,371.982Z" transform="translate(160.452 -371.59)" fill="#ff3d2e" fill-rule="evenodd"/>
</svg>
