<svg width="22" height="24" viewBox="0 0 22 24" fill="none" xmlns="http://www.w3.org/2000/svg">
<circle cx="11.886" cy="12.0622" r="4.01997" fill="#FF3D2E"/>
<path d="M16.6373 17.0565C15.419 18.1529 13.8352 18.7618 12.1298 18.7618C8.23177 18.7618 5.43008 15.9601 5.43008 11.9402C5.43008 7.9202 8.23177 5.24038 12.1298 5.24038C13.8352 5.24038 15.419 5.72743 16.6373 6.94569L17.4899 7.67648L21.1443 4.02213L20.2916 3.16947C17.977 1.22002 15.1753 0.00218259 12.1298 0.00218259C5.18634 -0.119694 0.0700073 4.87478 0.0700073 11.9402C0.0700073 18.7618 5.30821 24 12.1298 24C15.2971 24 18.2207 22.9036 20.5353 20.8327L21.388 19.98L17.4899 16.082L16.6373 17.0565Z" fill="#F5FCFF"/>
</svg>
