<svg xmlns="http://www.w3.org/2000/svg" width="26.441" height="25.203" viewBox="0 0 26.441 25.203">
  <path id="Path_9645" data-name="Path 9645" d="M-146.691,465.283l2.731,8.406a.569.569,0,0,0,.541.393h8.839a.568.568,0,0,1,.334,1.028l-7.151,5.2a.569.569,0,0,0-.207.635l2.732,8.407a.568.568,0,0,1-.874.635l-7.152-5.2a.566.566,0,0,0-.667,0l-7.152,5.2a.568.568,0,0,1-.874-.635l2.732-8.407a.569.569,0,0,0-.207-.635l-7.151-5.2a.568.568,0,0,1,.334-1.028h8.839a.57.57,0,0,0,.541-.393l2.731-8.406A.568.568,0,0,1-146.691,465.283Z" transform="translate(160.452 -464.89)" fill="#f8a82f" fill-rule="evenodd"/>
</svg>
